<?xml version="1.0" standalone="no"?><!DOCTYPE svg PUBLIC "-//W3C//DTD SVG 1.1//EN" "http://www.w3.org/Graphics/SVG/1.1/DTD/svg11.dtd"><svg t="1682078398535" class="icon" viewBox="0 0 1024 1024" version="1.1" xmlns="http://www.w3.org/2000/svg" p-id="7879" xmlns:xlink="http://www.w3.org/1999/xlink" width="200" height="200"><path d="M156.16 699.093333a384 384 0 0 0 211.413333 211.413334 386.56 386.56 0 0 0 288.853334 0A384 384 0 0 0 896 554.666667a384 384 0 0 0-112.426667-271.573334l-214.613333-213.333333a79.786667 79.786667 0 0 0-26.666667-17.706667 79.786667 79.786667 0 0 0-60.586666 0 79.786667 79.786667 0 0 0-26.666667 17.706667l-53.76 52.48a42.666667 42.666667 0 0 0 60.373333 60.373333L512 132.266667l211.2 211.2a298.666667 298.666667 0 0 1 0 422.4 296.106667 296.106667 0 0 1-98.773333 66.133333 298.666667 298.666667 0 0 1-224.853334 0 296.106667 296.106667 0 0 1-98.773333-66.133333 298.666667 298.666667 0 0 1 0-422.4l53.76-53.546667a42.666667 42.666667 0 0 0-60.373333-60.373333l-53.76 53.546666a384 384 0 0 0-84.266667 416z" fill="#ffffff" p-id="7880"></path><path d="M512 725.333333a42.666667 42.666667 0 0 1 0-85.333333 85.333333 85.333333 0 0 0 85.333333-85.333333 42.666667 42.666667 0 0 1 85.333334 0 170.666667 170.666667 0 0 1-170.666667 170.666666z" fill="#ffffff" p-id="7881"></path></svg>