<?xml version="1.0" standalone="no"?><!DOCTYPE svg PUBLIC "-//W3C//DTD SVG 1.1//EN" "http://www.w3.org/Graphics/SVG/1.1/DTD/svg11.dtd"><svg t="1682344148600" class="icon" viewBox="0 0 1024 1024" version="1.1" xmlns="http://www.w3.org/2000/svg" p-id="9191" xmlns:xlink="http://www.w3.org/1999/xlink" width="200" height="200"><path d="M502.697 7.767c-200.32 0-362.527 162.388-362.527 362.528 0 41.545 7.045 81.464 19.87 118.674v0.542l0.541 1.084a377.572 377.572 0 0 0 22.037 50.216l0.181 0.361 0.18 0.361c3.433 6.322 7.045 12.644 10.839 18.786l0.36 0.542 0.181 0.361 240.06 415.814c30.346 52.383 106.03 52.383 136.196 0l241.143-417.078 1.084-1.626 7.767-13.547c0.361-0.542 0.722-1.084 0.903-1.626l0.18-0.542 0.181-0.361c8.851-16.618 16.618-33.959 22.94-51.841l0.542-1.084v-0.362a363.557 363.557 0 0 0 19.87-118.674c0-200.14-162.388-362.528-362.528-362.528z m0 523.65c-95.192 0-172.141-77.129-172.141-172.14s77.13-172.143 172.141-172.143 172.142 77.13 172.142 172.142-77.13 172.142-172.142 172.142z" p-id="9192" fill="#8a8a8a"></path></svg>