<?xml version="1.0" standalone="no"?><!DOCTYPE svg PUBLIC "-//W3C//DTD SVG 1.1//EN" "http://www.w3.org/Graphics/SVG/1.1/DTD/svg11.dtd"><svg t="1682344094954" class="icon" viewBox="0 0 1024 1024" version="1.1" xmlns="http://www.w3.org/2000/svg" p-id="8095" xmlns:xlink="http://www.w3.org/1999/xlink" width="200" height="200"><path d="M543.744 444.416c-8.192 9.216-20.48 13.312-32.768 13.312-12.288 0-23.552-5.12-31.744-13.312-2.048-2.048-6.144-2.048-8.192 0-2.048 2.048-2.048 6.144 0 8.192 11.264 11.264 25.6 16.384 40.96 16.384s30.72-6.144 40.96-17.408c2.048-2.048 2.048-6.144 0-8.192-3.072-2.048-6.144-2.048-9.216 1.024z" p-id="8096" fill="#eb9045"></path><path d="M512 0C229.376 0 0 229.376 0 512s229.376 512 512 512 512-229.376 512-512S794.624 0 512 0zM343.04 373.76c14.336-80.896 84.992-143.36 168.96-143.36s154.624 61.44 168.96 143.36c17.408 3.072 30.72 18.432 30.72 37.888 0 19.456-15.36 35.84-33.792 37.888h-3.072c-5.12 0-10.24-1.024-15.36-3.072 4.096-13.312 6.144-27.648 6.144-41.984 0-10.24-1.024-19.456-3.072-28.672-13.312-71.68-75.776-125.952-150.528-125.952-74.752 0-136.192 54.272-149.504 125.952-2.048 9.216-3.072 19.456-3.072 28.672 0 14.336 2.048 28.672 6.144 41.984-4.096 2.048-9.216 3.072-15.36 3.072h-3.072c-19.456-2.048-33.792-18.432-33.792-37.888-1.024-19.456 12.288-34.816 29.696-37.888zM624.64 398.336c0 62.464-50.176 112.64-112.64 112.64s-112.64-50.176-112.64-112.64 50.176-112.64 112.64-112.64c62.464-1.024 112.64 50.176 112.64 112.64z m75.776 374.784H323.584c-45.056 0-77.824-44.032-62.464-86.016 28.672-82.944 98.304-147.456 184.32-169.984 20.48 10.24 43.008 16.384 66.56 16.384s47.104-6.144 66.56-16.384c86.016 22.528 155.648 87.04 184.32 169.984 14.336 41.984-18.432 86.016-62.464 86.016z" p-id="8097" fill="#eb9045"></path></svg>